<?xml version="1.0" standalone="no"?>
<!DOCTYPE svg PUBLIC "-//W3C//DTD SVG 20010904//EN"
 "http://www.w3.org/TR/2001/REC-SVG-20010904/DTD/svg10.dtd">
<svg version="1.0" xmlns="http://www.w3.org/2000/svg"
 width="1200.000000pt" height="1200.000000pt" viewBox="0 0 1200.000000 1200.000000"
 preserveAspectRatio="xMidYMid meet">
<metadata>
Created by potrace 1.11, written by Peter Selinger 2001-2013
</metadata>
<g transform="translate(0.000000,1200.000000) scale(0.100000,-0.100000)"
fill="#000000" stroke="none">
<path d="M6090 10950 c-8 -5 -31 -10 -50 -10 -140 -1 -521 -101 -729 -192
-338 -148 -605 -332 -882 -608 -322 -320 -588 -730 -756 -1165 -42 -109 -48
-117 -76 -105 -21 8 -314 101 -387 123 -19 5 -46 13 -60 18 -219 71 -515 69
-895 -7 -134 -26 -362 -98 -495 -155 -203 -87 -465 -245 -640 -386 -295 -236
-558 -566 -721 -903 -139 -286 -204 -501 -249 -820 -34 -238 -25 -611 21 -850
33 -173 91 -361 167 -545 33 -80 139 -282 192 -365 141 -222 343 -456 527
-611 48 -41 90 -77 93 -80 16 -18 209 -149 285 -194 139 -81 293 -157 395
-194 19 -7 44 -17 55 -21 84 -36 354 -108 485 -130 222 -37 345 -40 1452 -40
l1087 0 31 -59 c17 -32 51 -78 76 -102 24 -24 44 -50 44 -57 0 -8 -20 -37 -44
-65 -281 -332 -337 -836 -136 -1238 92 -184 240 -347 420 -463 36 -23 81 -49
100 -58 225 -103 304 -121 540 -122 175 0 235 9 390 61 377 126 676 460 765
855 31 139 29 353 -4 510 -28 131 -128 329 -228 450 -32 39 -62 76 -67 83 -7
9 1 26 26 57 19 23 47 67 62 96 l26 52 1408 0 c1437 0 1514 2 1722 39 429 76
844 289 1164 600 362 351 585 788 660 1290 21 138 21 457 1 600 -71 498 -280
917 -635 1271 -236 236 -488 402 -786 515 -306 117 -657 170 -959 145 -80 -7
-148 -11 -150 -8 -3 2 -7 38 -10 79 -21 271 -82 535 -192 823 -221 577 -643
1086 -1188 1433 -272 173 -627 321 -915 383 -30 6 -82 17 -115 25 -33 7 -105
18 -160 25 -55 6 -119 15 -143 20 -56 13 -502 13 -522 0z m280 -2605 c404 -51
682 -161 947 -374 197 -158 345 -345 461 -582 219 -449 216 -921 -7 -1369
-129 -257 -213 -359 -576 -695 -377 -349 -476 -454 -537 -565 -108 -198 -167
-463 -191 -855 l-2 -40 -544 -3 c-425 -2 -547 1 -559 10 -13 11 -14 43 -8 233
8 281 28 416 96 660 52 186 134 361 257 550 130 200 269 351 563 614 242 216
417 395 463 472 58 99 80 184 80 314 0 127 -15 192 -69 281 -79 132 -227 246
-387 298 -108 35 -155 41 -342 41 -189 0 -215 -3 -335 -42 -289 -93 -501 -357
-529 -658 l-6 -70 -537 -3 -538 -2 0 78 c0 143 41 376 92 527 121 355 377 674
712 885 252 159 520 251 857 294 145 19 496 19 639 1z m-212 -4981 c126 -41
189 -81 287 -179 143 -143 205 -286 205 -475 0 -199 -67 -358 -210 -499 -186
-184 -475 -252 -729 -170 -205 65 -378 236 -449 442 -34 99 -42 272 -17 382
48 218 234 424 448 496 135 46 330 47 465 3z"/>
</g>
</svg>
